# xmcd
#
# Track frame offsets: 
#        150
#        21714
#        45566
#        87944
#        120009
#        145736
#        170338
#        189465
#        206154
#        230907
#        248082
#        271298
#        297926
#        334415
#
# Disc length: 4725 seconds
#
# Revision: 0
# Processed by: cddbd v1.5.2PL0 Copyright (c) Steve Scherf et al.
# Submitted via: ExactAudioCopy v1.0b3
#
DISCID=cf12730e
DTITLE=Various Artist - Blues Paradise  vol.31
DYEAR=2003
DGENRE=Blues
TTITLE0=James Solberg - The Hand You're Dealt
TTITLE1=Sean Costello - I'm Leaving
TTITLE2=Rudy Rotta - Deep Down
TTITLE3=Calvin Russell - Crossroads
TTITLE4=Big George And Business - Tonight The Bottle Let Me Down
TTITLE5=Melvin Taylor - Another Bad Day
TTITLE6=Robin Trower - In My Dream
TTITLE7=Huub Van Der Lubbe - Window Of My Eyea
TTITLE8=Cuby and Blizzards - Dancing Bear
TTITLE9=Muskee - Tonight On Me
TTITLE10=Tommy Shrieve Band - You Got A Love
TTITLE11=Peter Garstenauer - Down For You
TTITLE12=Phil Guy - Fixin' To Die
TTITLE13=The Hamsters - Hey Joe
EXTD=
EXTT0=
EXTT1=
EXTT2=
EXTT3=
EXTT4=
EXTT5=
EXTT6=
EXTT7=
EXTT8=
EXTT9=
EXTT10=
EXTT11=
EXTT12=
EXTT13=
PLAYORDER=
